<svg width="9" height="9" viewBox="0 0 9 9" fill="none" xmlns="http://www.w3.org/2000/svg">
<path fill-rule="evenodd" clip-rule="evenodd" d="M0.375 4.5C0.375 2.22183 2.22183 0.375 4.5 0.375C6.77817 0.375 8.625 2.22183 8.625 4.5C8.625 6.77817 6.77817 8.625 4.5 8.625C2.22183 8.625 0.375 6.77817 0.375 4.5Z" fill="#FF7100"/>
<path fill-rule="evenodd" clip-rule="evenodd" d="M6.4915 3.01611C6.63794 3.16256 6.63794 3.4 6.4915 3.54644L4.16383 5.98394C4.01739 6.13039 3.77995 6.13039 3.6335 5.98394L2.5085 4.85894C2.36206 4.7125 2.36206 4.47506 2.5085 4.32861C2.65495 4.18217 2.89239 4.18217 3.03883 4.32861L3.89867 5.18845L5.96117 3.01611C6.10761 2.86967 6.34505 2.86967 6.4915 3.01611Z" fill="white"/>
</svg>
